<mxfile modified="2023-04-26T08:33:33.659Z" host="app.diagrams.net" agent="Mozilla/5.0 (Windows NT 10.0; Win64; x64) AppleWebKit/537.36 (KHTML, like Gecko) Chrome/112.0.0.0 Safari/537.36" etag="zVFzUvKjDadyJAy-HIt2" version="21.2.2" type="github">
  <diagram id="C2fSY1v2SiZeoUbDoYyL" name="Page-1">
    <mxGraphModel dx="2219" dy="617" grid="1" gridSize="10" guides="1" tooltips="1" connect="1" arrows="1" fold="1" page="1" pageScale="1" pageWidth="1169" pageHeight="827" math="0" shadow="0">
      <root>
        <mxCell id="0" />
        <mxCell id="1" parent="0" />
        <mxCell id="nQpdObJUpN9kFc_Fgj45-11" value="" style="rounded=0;orthogonalLoop=1;jettySize=auto;html=1;startArrow=none;endArrow=classic;segment=10;sourcePerimeterSpacing=0;targetPerimeterSpacing=0;entryX=0.5;entryY=0;entryDx=0;entryDy=0;exitX=0.5;exitY=1;exitDx=0;exitDy=0;endFill=1;" edge="1" parent="1" source="nQpdObJUpN9kFc_Fgj45-5" target="nQpdObJUpN9kFc_Fgj45-7">
          <mxGeometry relative="1" as="geometry" />
        </mxCell>
        <mxCell id="nQpdObJUpN9kFc_Fgj45-5" value="CartFacade.addToCart" style="whiteSpace=wrap;html=1;rounded=1;arcSize=50;align=center;verticalAlign=middle;strokeWidth=1;autosize=1;spacing=4;treeFolding=1;treeMoving=1;newEdgeStyle={&quot;edgeStyle&quot;:&quot;entityRelationEdgeStyle&quot;,&quot;startArrow&quot;:&quot;none&quot;,&quot;endArrow&quot;:&quot;none&quot;,&quot;segment&quot;:10,&quot;curved&quot;:1,&quot;sourcePerimeterSpacing&quot;:0,&quot;targetPerimeterSpacing&quot;:0};" vertex="1" parent="1">
          <mxGeometry x="115" y="50" width="170" height="30" as="geometry" />
        </mxCell>
        <mxCell id="nQpdObJUpN9kFc_Fgj45-17" value="" style="rounded=0;orthogonalLoop=1;jettySize=auto;html=1;startArrow=none;endArrow=classic;segment=10;sourcePerimeterSpacing=0;targetPerimeterSpacing=0;exitX=0.5;exitY=1;exitDx=0;exitDy=0;entryX=0.5;entryY=0;entryDx=0;entryDy=0;endFill=1;" edge="1" parent="1" source="nQpdObJUpN9kFc_Fgj45-7" target="nQpdObJUpN9kFc_Fgj45-16">
          <mxGeometry relative="1" as="geometry" />
        </mxCell>
        <mxCell id="nQpdObJUpN9kFc_Fgj45-7" value="CommerceCartParameterConverter.convert" style="whiteSpace=wrap;html=1;rounded=1;arcSize=50;align=center;verticalAlign=middle;strokeWidth=1;autosize=1;spacing=4;treeFolding=1;treeMoving=1;newEdgeStyle={&quot;edgeStyle&quot;:&quot;entityRelationEdgeStyle&quot;,&quot;startArrow&quot;:&quot;none&quot;,&quot;endArrow&quot;:&quot;none&quot;,&quot;segment&quot;:10,&quot;curved&quot;:1,&quot;sourcePerimeterSpacing&quot;:0,&quot;targetPerimeterSpacing&quot;:0};" vertex="1" parent="1">
          <mxGeometry x="60" y="110" width="280" height="30" as="geometry" />
        </mxCell>
        <mxCell id="nQpdObJUpN9kFc_Fgj45-20" value="" style="rounded=0;orthogonalLoop=1;jettySize=auto;html=1;startArrow=none;endArrow=classic;segment=10;sourcePerimeterSpacing=0;targetPerimeterSpacing=0;exitX=0.5;exitY=1;exitDx=0;exitDy=0;entryX=0.5;entryY=0;entryDx=0;entryDy=0;endFill=1;" edge="1" parent="1" source="nQpdObJUpN9kFc_Fgj45-16" target="nQpdObJUpN9kFc_Fgj45-19">
          <mxGeometry relative="1" as="geometry" />
        </mxCell>
        <mxCell id="nQpdObJUpN9kFc_Fgj45-16" value="CommerceCartService.addToCart" style="whiteSpace=wrap;html=1;rounded=1;arcSize=50;align=center;verticalAlign=middle;strokeWidth=1;autosize=1;spacing=4;treeFolding=1;treeMoving=1;newEdgeStyle={&quot;edgeStyle&quot;:&quot;entityRelationEdgeStyle&quot;,&quot;startArrow&quot;:&quot;none&quot;,&quot;endArrow&quot;:&quot;none&quot;,&quot;segment&quot;:10,&quot;curved&quot;:1,&quot;sourcePerimeterSpacing&quot;:0,&quot;targetPerimeterSpacing&quot;:0};" vertex="1" parent="1">
          <mxGeometry x="90" y="170" width="220" height="30" as="geometry" />
        </mxCell>
        <mxCell id="nQpdObJUpN9kFc_Fgj45-22" value="" style="rounded=0;orthogonalLoop=1;jettySize=auto;html=1;startArrow=none;endArrow=classic;segment=10;sourcePerimeterSpacing=0;targetPerimeterSpacing=0;entryX=0.5;entryY=0;entryDx=0;entryDy=0;exitX=0;exitY=0.75;exitDx=0;exitDy=0;endFill=1;" edge="1" parent="1" source="nQpdObJUpN9kFc_Fgj45-19" target="nQpdObJUpN9kFc_Fgj45-21">
          <mxGeometry relative="1" as="geometry" />
        </mxCell>
        <mxCell id="nQpdObJUpN9kFc_Fgj45-26" value="" style="rounded=0;orthogonalLoop=1;jettySize=auto;html=1;startArrow=none;endArrow=classic;segment=10;sourcePerimeterSpacing=0;targetPerimeterSpacing=0;exitX=0.25;exitY=1;exitDx=0;exitDy=0;entryX=0.5;entryY=0;entryDx=0;entryDy=0;endFill=1;" edge="1" parent="1" source="nQpdObJUpN9kFc_Fgj45-19" target="nQpdObJUpN9kFc_Fgj45-25">
          <mxGeometry relative="1" as="geometry">
            <mxPoint x="210" y="270" as="sourcePoint" />
          </mxGeometry>
        </mxCell>
        <mxCell id="nQpdObJUpN9kFc_Fgj45-28" value="" style="rounded=0;orthogonalLoop=1;jettySize=auto;html=1;startArrow=none;endArrow=classic;segment=10;sourcePerimeterSpacing=0;targetPerimeterSpacing=0;endFill=1;" edge="1" parent="1" source="nQpdObJUpN9kFc_Fgj45-19" target="nQpdObJUpN9kFc_Fgj45-27">
          <mxGeometry relative="1" as="geometry" />
        </mxCell>
        <mxCell id="nQpdObJUpN9kFc_Fgj45-42" value="" style="rounded=0;orthogonalLoop=1;jettySize=auto;html=1;startArrow=none;endArrow=classic;segment=10;sourcePerimeterSpacing=0;targetPerimeterSpacing=0;endFill=1;" edge="1" parent="1" source="nQpdObJUpN9kFc_Fgj45-19" target="nQpdObJUpN9kFc_Fgj45-41">
          <mxGeometry relative="1" as="geometry" />
        </mxCell>
        <mxCell id="nQpdObJUpN9kFc_Fgj45-19" value="CommerceAddToCartStrategy.addToCart" style="whiteSpace=wrap;html=1;rounded=1;arcSize=50;align=center;verticalAlign=middle;strokeWidth=1;autosize=1;spacing=4;treeFolding=1;treeMoving=1;newEdgeStyle={&quot;edgeStyle&quot;:&quot;entityRelationEdgeStyle&quot;,&quot;startArrow&quot;:&quot;none&quot;,&quot;endArrow&quot;:&quot;none&quot;,&quot;segment&quot;:10,&quot;curved&quot;:1,&quot;sourcePerimeterSpacing&quot;:0,&quot;targetPerimeterSpacing&quot;:0};" vertex="1" parent="1">
          <mxGeometry x="70" y="230" width="260" height="30" as="geometry" />
        </mxCell>
        <mxCell id="nQpdObJUpN9kFc_Fgj45-21" value="CommerceAddToCartMethodHook.beforeAddToCart" style="whiteSpace=wrap;html=1;rounded=1;arcSize=50;align=center;verticalAlign=middle;strokeWidth=1;autosize=1;spacing=4;treeFolding=1;treeMoving=1;newEdgeStyle={&quot;edgeStyle&quot;:&quot;entityRelationEdgeStyle&quot;,&quot;startArrow&quot;:&quot;none&quot;,&quot;endArrow&quot;:&quot;none&quot;,&quot;segment&quot;:10,&quot;curved&quot;:1,&quot;sourcePerimeterSpacing&quot;:0,&quot;targetPerimeterSpacing&quot;:0};" vertex="1" parent="1">
          <mxGeometry x="-540" y="350" width="320" height="30" as="geometry" />
        </mxCell>
        <mxCell id="nQpdObJUpN9kFc_Fgj45-25" value="CartService.addNewEntry" style="whiteSpace=wrap;html=1;rounded=1;arcSize=50;align=center;verticalAlign=middle;strokeWidth=1;autosize=1;spacing=4;treeFolding=1;treeMoving=1;newEdgeStyle={&quot;edgeStyle&quot;:&quot;entityRelationEdgeStyle&quot;,&quot;startArrow&quot;:&quot;none&quot;,&quot;endArrow&quot;:&quot;none&quot;,&quot;segment&quot;:10,&quot;curved&quot;:1,&quot;sourcePerimeterSpacing&quot;:0,&quot;targetPerimeterSpacing&quot;:0};" vertex="1" parent="1">
          <mxGeometry x="-190" y="350" width="180" height="30" as="geometry" />
        </mxCell>
        <mxCell id="nQpdObJUpN9kFc_Fgj45-30" value="" style="rounded=0;orthogonalLoop=1;jettySize=auto;html=1;startArrow=none;endArrow=classic;segment=10;sourcePerimeterSpacing=0;targetPerimeterSpacing=0;exitX=0;exitY=0.75;exitDx=0;exitDy=0;entryX=0.25;entryY=0;entryDx=0;entryDy=0;endFill=1;" edge="1" parent="1" source="nQpdObJUpN9kFc_Fgj45-27" target="nQpdObJUpN9kFc_Fgj45-29">
          <mxGeometry relative="1" as="geometry" />
        </mxCell>
        <mxCell id="nQpdObJUpN9kFc_Fgj45-34" value="" style="rounded=0;orthogonalLoop=1;jettySize=auto;html=1;startArrow=none;endArrow=classic;segment=10;sourcePerimeterSpacing=0;targetPerimeterSpacing=0;exitX=0.25;exitY=1;exitDx=0;exitDy=0;entryX=0.5;entryY=0;entryDx=0;entryDy=0;endFill=1;" edge="1" parent="1" source="nQpdObJUpN9kFc_Fgj45-27" target="nQpdObJUpN9kFc_Fgj45-33">
          <mxGeometry relative="1" as="geometry" />
        </mxCell>
        <mxCell id="nQpdObJUpN9kFc_Fgj45-37" value="" style="rounded=0;orthogonalLoop=1;jettySize=auto;html=1;startArrow=none;endArrow=classic;segment=10;sourcePerimeterSpacing=0;targetPerimeterSpacing=0;exitX=0.75;exitY=1;exitDx=0;exitDy=0;entryX=0.25;entryY=0;entryDx=0;entryDy=0;endFill=1;" edge="1" parent="1" source="nQpdObJUpN9kFc_Fgj45-27" target="nQpdObJUpN9kFc_Fgj45-36">
          <mxGeometry relative="1" as="geometry" />
        </mxCell>
        <mxCell id="nQpdObJUpN9kFc_Fgj45-40" value="" style="rounded=0;orthogonalLoop=1;jettySize=auto;html=1;startArrow=none;endArrow=classic;segment=10;sourcePerimeterSpacing=0;targetPerimeterSpacing=0;endFill=1;exitX=1;exitY=0.75;exitDx=0;exitDy=0;" edge="1" parent="1" source="nQpdObJUpN9kFc_Fgj45-27" target="nQpdObJUpN9kFc_Fgj45-39">
          <mxGeometry relative="1" as="geometry" />
        </mxCell>
        <mxCell id="nQpdObJUpN9kFc_Fgj45-27" value="CommerceCartCalculationStrategy.calculateCart" style="whiteSpace=wrap;html=1;rounded=1;arcSize=50;align=center;verticalAlign=middle;strokeWidth=1;autosize=1;spacing=4;treeFolding=1;treeMoving=1;newEdgeStyle={&quot;edgeStyle&quot;:&quot;entityRelationEdgeStyle&quot;,&quot;startArrow&quot;:&quot;none&quot;,&quot;endArrow&quot;:&quot;none&quot;,&quot;segment&quot;:10,&quot;curved&quot;:1,&quot;sourcePerimeterSpacing&quot;:0,&quot;targetPerimeterSpacing&quot;:0};" vertex="1" parent="1">
          <mxGeometry x="170" y="350" width="300" height="30" as="geometry" />
        </mxCell>
        <mxCell id="nQpdObJUpN9kFc_Fgj45-29" value="CommerceCartCalculationMethodHook.beforeCalculate" style="whiteSpace=wrap;html=1;rounded=1;arcSize=50;align=center;verticalAlign=middle;strokeWidth=1;autosize=1;spacing=4;treeFolding=1;treeMoving=1;newEdgeStyle={&quot;edgeStyle&quot;:&quot;entityRelationEdgeStyle&quot;,&quot;startArrow&quot;:&quot;none&quot;,&quot;endArrow&quot;:&quot;none&quot;,&quot;segment&quot;:10,&quot;curved&quot;:1,&quot;sourcePerimeterSpacing&quot;:0,&quot;targetPerimeterSpacing&quot;:0};" vertex="1" parent="1">
          <mxGeometry x="-170" y="470" width="340" height="30" as="geometry" />
        </mxCell>
        <mxCell id="nQpdObJUpN9kFc_Fgj45-33" value="CalcService.calculate" style="whiteSpace=wrap;html=1;rounded=1;arcSize=50;align=center;verticalAlign=middle;strokeWidth=1;autosize=1;spacing=4;treeFolding=1;treeMoving=1;newEdgeStyle={&quot;edgeStyle&quot;:&quot;entityRelationEdgeStyle&quot;,&quot;startArrow&quot;:&quot;none&quot;,&quot;endArrow&quot;:&quot;none&quot;,&quot;segment&quot;:10,&quot;curved&quot;:1,&quot;sourcePerimeterSpacing&quot;:0,&quot;targetPerimeterSpacing&quot;:0};" vertex="1" parent="1">
          <mxGeometry x="250" y="480" width="160" height="30" as="geometry" />
        </mxCell>
        <mxCell id="nQpdObJUpN9kFc_Fgj45-36" value="PromotionsService.updatePromotions" style="whiteSpace=wrap;html=1;rounded=1;arcSize=50;align=center;verticalAlign=middle;strokeWidth=1;autosize=1;spacing=4;treeFolding=1;treeMoving=1;newEdgeStyle={&quot;edgeStyle&quot;:&quot;entityRelationEdgeStyle&quot;,&quot;startArrow&quot;:&quot;none&quot;,&quot;endArrow&quot;:&quot;none&quot;,&quot;segment&quot;:10,&quot;curved&quot;:1,&quot;sourcePerimeterSpacing&quot;:0,&quot;targetPerimeterSpacing&quot;:0};" vertex="1" parent="1">
          <mxGeometry x="460" y="490" width="250" height="30" as="geometry" />
        </mxCell>
        <mxCell id="nQpdObJUpN9kFc_Fgj45-39" value="CommerceCartCalculationMethodHook.afterCalculate" style="whiteSpace=wrap;html=1;rounded=1;arcSize=50;align=center;verticalAlign=middle;strokeWidth=1;autosize=1;spacing=4;treeFolding=1;treeMoving=1;newEdgeStyle={&quot;edgeStyle&quot;:&quot;entityRelationEdgeStyle&quot;,&quot;startArrow&quot;:&quot;none&quot;,&quot;endArrow&quot;:&quot;none&quot;,&quot;segment&quot;:10,&quot;curved&quot;:1,&quot;sourcePerimeterSpacing&quot;:0,&quot;targetPerimeterSpacing&quot;:0};" vertex="1" parent="1">
          <mxGeometry x="780" y="490" width="330" height="30" as="geometry" />
        </mxCell>
        <mxCell id="nQpdObJUpN9kFc_Fgj45-41" value="CommerceAddToCartMethodHook.afterAddToCart" style="whiteSpace=wrap;html=1;rounded=1;arcSize=50;align=center;verticalAlign=middle;strokeWidth=1;autosize=1;spacing=4;treeFolding=1;treeMoving=1;newEdgeStyle={&quot;edgeStyle&quot;:&quot;entityRelationEdgeStyle&quot;,&quot;startArrow&quot;:&quot;none&quot;,&quot;endArrow&quot;:&quot;none&quot;,&quot;segment&quot;:10,&quot;curved&quot;:1,&quot;sourcePerimeterSpacing&quot;:0,&quot;targetPerimeterSpacing&quot;:0};" vertex="1" parent="1">
          <mxGeometry x="640" y="350" width="310" height="30" as="geometry" />
        </mxCell>
        <mxCell id="nQpdObJUpN9kFc_Fgj45-43" value="EntryMergeStrategy.getEntryToMerge" style="whiteSpace=wrap;html=1;rounded=1;arcSize=50;align=center;verticalAlign=middle;strokeWidth=1;autosize=1;spacing=4;treeFolding=1;treeMoving=1;newEdgeStyle={&quot;edgeStyle&quot;:&quot;entityRelationEdgeStyle&quot;,&quot;startArrow&quot;:&quot;none&quot;,&quot;endArrow&quot;:&quot;none&quot;,&quot;segment&quot;:10,&quot;curved&quot;:1,&quot;sourcePerimeterSpacing&quot;:0,&quot;targetPerimeterSpacing&quot;:0};" vertex="1" parent="1">
          <mxGeometry x="1000" y="350" width="250" height="30" as="geometry" />
        </mxCell>
        <mxCell id="nQpdObJUpN9kFc_Fgj45-44" value="" style="rounded=0;orthogonalLoop=1;jettySize=auto;html=1;startArrow=none;endArrow=classic;segment=10;sourcePerimeterSpacing=0;targetPerimeterSpacing=0;endFill=1;entryX=0.5;entryY=0;entryDx=0;entryDy=0;exitX=1;exitY=0.5;exitDx=0;exitDy=0;" edge="1" parent="1" source="nQpdObJUpN9kFc_Fgj45-19" target="nQpdObJUpN9kFc_Fgj45-43">
          <mxGeometry relative="1" as="geometry">
            <mxPoint x="284" y="270" as="sourcePoint" />
            <mxPoint x="731" y="360" as="targetPoint" />
          </mxGeometry>
        </mxCell>
      </root>
    </mxGraphModel>
  </diagram>
</mxfile>
